<?xml version="1.0" encoding="UTF-8"?>
<svg width="56px" height="53px" viewBox="0 0 56 53" version="1.1" xmlns="http://www.w3.org/2000/svg" xmlns:xlink="http://www.w3.org/1999/xlink">
    <!-- Generator: Sketch 53.2 (72643) - https://sketchapp.com -->
    <title>25314</title>
    <desc>Created with Sketch.</desc>
    <g id="Page-1" stroke="none" stroke-width="1" fill="none" fill-rule="evenodd">
        <g id="25314" transform="translate(23.000000, 26.000000) rotate(45.000000) translate(-23.000000, -26.000000) translate(-1.000000, 2.000000)" fill="#008482" fill-rule="nonzero">
            <path d="M47.4386035,5.93057357 C48.1673416,3.7435212 48.0310025,2.05777556 47.0277905,0.872618454 C45.8431122,-0.129995012 44.1570075,-0.266214464 41.9694763,0.461566085 C39.7821845,1.19066334 37.8226833,2.42082793 36.0908529,4.15229925 L30.6230424,9.62058853 L7.89701746,4.18689277 C7.53240898,4.07281796 7.19066334,4.16391022 6.87190025,4.46004988 L2.49719701,8.83451372 C2.24690274,9.08540648 2.1440798,9.39291771 2.18980549,9.75740648 C2.25815461,10.1223741 2.45195012,10.3954115 2.77083292,10.5778354 L20.13199,20.1127182 L11.2803591,28.9643491 L4.65037406,27.1535162 C4.60488778,27.1305337 4.51403491,27.1190424 4.37721696,27.1190424 C4.05809476,27.1190424 3.79630923,27.2213865 3.59114214,27.4266733 L0.310503741,30.7414264 C0.082713217,31.0142244 -0.0196309227,31.2992319 0.00311221945,31.5951322 C0.0483591022,31.9596209 0.196428928,32.2217656 0.447321696,32.3815661 L9.05931172,38.8402594 L15.5182444,47.45201 C15.7234115,47.7031421 15.9969277,47.8504938 16.3386733,47.896818 L16.4070224,47.896818 C16.7261446,47.896818 16.9879302,47.7944738 17.1930973,47.5896658 L20.473616,44.3093865 C20.7697556,43.9899052 20.8609676,43.636788 20.7472519,43.2495561 L18.9358204,36.6195711 L27.7873317,27.7673416 L37.3226933,45.1294564 C37.4591521,45.4257157 37.6983142,45.6079002 38.0402993,45.6763691 C38.1082893,45.6992319 38.1881297,45.7103641 38.279581,45.7103641 C38.5523791,45.7103641 38.7691571,45.6418953 38.9284788,45.5054364 L43.3037805,42.224798 C43.690414,41.9060349 43.8272319,41.530414 43.7138753,41.0974564 L38.2459451,17.311601 L43.7482294,11.8095561 C45.4793416,10.0773666 46.7095062,8.11762594 47.4386035,5.93057357 Z" id="Path"></path>
        </g>
    </g>
</svg>